<svg xmlns="http://www.w3.org/2000/svg" viewBox="0 0 57.38 57.38"><defs><style>.cls-1{fill:#fff;}.cls-2{fill:#ed1c24;}</style></defs><title>Asset 1</title><g id="Layer_2" data-name="Layer 2"><g id="Conditions_Pop_Up" data-name="Conditions Pop Up"><g id="close_btn" data-name="close btn"><path class="cls-1" d="M55.46,39c.9-3.42,1.92-6.78,1.92-10.35A28.69,28.69,0,1,0,28.69,57.38c7.45,0,13.4-4.33,19.88-8"/><path d="M28.69,0A28.69,28.69,0,1,0,48.57,49.37,1.17,1.17,0,1,0,47,47.69a26.23,26.23,0,1,1,6.33-9.5,1.17,1.17,0,0,0,2.18.85A28.72,28.72,0,0,0,28.69,0Z"/><path class="cls-2" d="M32.62,31.16A1.17,1.17,0,1,0,31,32.83l9.19,9a1.17,1.17,0,0,0,.82.33,1.14,1.14,0,0,0,.83-.35,1.17,1.17,0,0,0,0-1.65Z"/><path class="cls-2" d="M24.36,26A1.17,1.17,0,1,0,26,24.36l-8.8-8.8a1.17,1.17,0,0,0-1.65,1.65Z"/><path class="cls-2" d="M41.82,15.56a1.16,1.16,0,0,0-1.65,0L15.56,40.17a1.16,1.16,0,0,0,0,1.65,1.14,1.14,0,0,0,.82.34,1.16,1.16,0,0,0,.83-.34L41.82,17.21A1.16,1.16,0,0,0,41.82,15.56Z"/></g></g></g></svg>