<svg xmlns="http://www.w3.org/2000/svg" viewBox="0 0 55.31 55.31"><defs><style>.cls-1{fill:#ff00f6;}</style></defs><title>Asset 1</title><g id="Layer_2" data-name="Layer 2"><g id="Layer_1-2" data-name="Layer 1"><g id="Log_Out_icon" data-name="Log Out icon"><path class="cls-1" d="M46.66,0h-38A8.66,8.66,0,0,0,0,8.64V10.8a2.16,2.16,0,0,0,4.32,0V8.64A4.33,4.33,0,0,1,8.64,4.32h38A4.33,4.33,0,0,1,51,8.64v38A4.33,4.33,0,0,1,46.66,51h-38a4.33,4.33,0,0,1-4.32-4.32V44.5A2.16,2.16,0,0,0,0,44.5v2.17a8.66,8.66,0,0,0,8.64,8.64h38a8.66,8.66,0,0,0,8.65-8.64v-38A8.66,8.66,0,0,0,46.66,0Z"/><path d="M5,29.2l0,0a2.16,2.16,0,0,1,0-3.06l8-8.07A2.16,2.16,0,1,0,9.92,15l-8,8.07a6.49,6.49,0,0,0,0,9.16l8,8.17a2.16,2.16,0,1,0,3.08-3Z"/><path d="M36,25.49H13a2.16,2.16,0,0,0,0,4.32H36a2.16,2.16,0,1,0,0-4.32Z"/></g></g></g></svg>